<mxfile host="65bd71144e">
    <diagram id="4iThiWOuW6RBE41MxMGM" name="Init Point">
        <mxGraphModel dx="1348" dy="1096" grid="1" gridSize="10" guides="1" tooltips="1" connect="1" arrows="1" fold="1" page="1" pageScale="1" pageWidth="1169" pageHeight="827" math="0" shadow="0">
            <root>
                <mxCell id="0"/>
                <mxCell id="1" parent="0"/>
                <mxCell id="n9nPnC-nrkT3UAbufBiy-1" style="edgeStyle=none;html=1;exitX=1;exitY=0.5;exitDx=0;exitDy=0;entryX=0;entryY=0.5;entryDx=0;entryDy=0;endArrow=block;endFill=1;" edge="1" parent="1" source="ofREAWRliKzhn9Ep3vmD-1" target="ofREAWRliKzhn9Ep3vmD-10">
                    <mxGeometry relative="1" as="geometry"/>
                </mxCell>
                <mxCell id="n9nPnC-nrkT3UAbufBiy-42" style="edgeStyle=none;html=1;exitX=0.75;exitY=1;exitDx=0;exitDy=0;entryX=0.75;entryY=0;entryDx=0;entryDy=0;" edge="1" parent="1" source="ofREAWRliKzhn9Ep3vmD-1" target="n9nPnC-nrkT3UAbufBiy-41">
                    <mxGeometry relative="1" as="geometry"/>
                </mxCell>
                <mxCell id="YsFe-nArVIZYpezZopTt-15" style="edgeStyle=orthogonalEdgeStyle;html=1;exitX=0;exitY=0.5;exitDx=0;exitDy=0;entryX=0;entryY=0.5;entryDx=0;entryDy=0;" edge="1" parent="1" source="ofREAWRliKzhn9Ep3vmD-1" target="n9nPnC-nrkT3UAbufBiy-16">
                    <mxGeometry relative="1" as="geometry">
                        <Array as="points">
                            <mxPoint x="80" y="361"/>
                            <mxPoint x="80" y="120"/>
                        </Array>
                    </mxGeometry>
                </mxCell>
                <mxCell id="ofREAWRliKzhn9Ep3vmD-1" value="GROUP_T" style="rounded=0;whiteSpace=wrap;html=1;" vertex="1" parent="1">
                    <mxGeometry x="119" y="341" width="80" height="40" as="geometry"/>
                </mxCell>
                <mxCell id="n9nPnC-nrkT3UAbufBiy-8" style="edgeStyle=none;html=1;exitX=1;exitY=0.5;exitDx=0;exitDy=0;entryX=0;entryY=0.5;entryDx=0;entryDy=0;" edge="1" parent="1" source="ofREAWRliKzhn9Ep3vmD-2" target="ofREAWRliKzhn9Ep3vmD-4">
                    <mxGeometry relative="1" as="geometry"/>
                </mxCell>
                <mxCell id="ofREAWRliKzhn9Ep3vmD-2" value="CHAR_T" style="rounded=0;whiteSpace=wrap;html=1;" vertex="1" parent="1">
                    <mxGeometry x="489" y="341" width="80" height="40" as="geometry"/>
                </mxCell>
                <mxCell id="yKMFhbzpg5A_5rozGzah-3" style="edgeStyle=none;html=1;exitX=1;exitY=0.5;exitDx=0;exitDy=0;" edge="1" parent="1" source="ofREAWRliKzhn9Ep3vmD-4" target="yKMFhbzpg5A_5rozGzah-1">
                    <mxGeometry relative="1" as="geometry"/>
                </mxCell>
                <mxCell id="ofREAWRliKzhn9Ep3vmD-4" value="FLOAT_T" style="rounded=0;whiteSpace=wrap;html=1;" vertex="1" parent="1">
                    <mxGeometry x="649" y="341" width="80" height="40" as="geometry"/>
                </mxCell>
                <mxCell id="n9nPnC-nrkT3UAbufBiy-7" style="edgeStyle=none;html=1;exitX=1;exitY=0.5;exitDx=0;exitDy=0;entryX=0;entryY=0.5;entryDx=0;entryDy=0;" edge="1" parent="1" source="ofREAWRliKzhn9Ep3vmD-10" target="ofREAWRliKzhn9Ep3vmD-2">
                    <mxGeometry relative="1" as="geometry"/>
                </mxCell>
                <mxCell id="ofREAWRliKzhn9Ep3vmD-10" value="UINT8_T" style="rounded=0;whiteSpace=wrap;html=1;" vertex="1" parent="1">
                    <mxGeometry x="319" y="341" width="80" height="40" as="geometry"/>
                </mxCell>
                <mxCell id="wk05YMfpP9dzShogbG-W-1" value="isType" style="rounded=0;whiteSpace=wrap;html=1;fillColor=#ffff88;strokeColor=#36393d;" vertex="1" parent="1">
                    <mxGeometry x="119" y="321" width="80" height="20" as="geometry"/>
                </mxCell>
                <mxCell id="n9nPnC-nrkT3UAbufBiy-10" style="edgeStyle=orthogonalEdgeStyle;html=1;exitX=0.5;exitY=0;exitDx=0;exitDy=0;entryX=1;entryY=0.25;entryDx=0;entryDy=0;" edge="1" parent="1" source="n9nPnC-nrkT3UAbufBiy-4" target="ofREAWRliKzhn9Ep3vmD-1">
                    <mxGeometry relative="1" as="geometry">
                        <Array as="points">
                            <mxPoint x="359" y="291"/>
                            <mxPoint x="259" y="291"/>
                            <mxPoint x="259" y="351"/>
                        </Array>
                    </mxGeometry>
                </mxCell>
                <mxCell id="n9nPnC-nrkT3UAbufBiy-4" value="isType" style="rounded=0;whiteSpace=wrap;html=1;fillColor=#ffff88;strokeColor=#36393d;" vertex="1" parent="1">
                    <mxGeometry x="319" y="321" width="80" height="20" as="geometry"/>
                </mxCell>
                <mxCell id="n9nPnC-nrkT3UAbufBiy-11" style="edgeStyle=orthogonalEdgeStyle;html=1;exitX=0.5;exitY=0;exitDx=0;exitDy=0;" edge="1" parent="1" source="n9nPnC-nrkT3UAbufBiy-5">
                    <mxGeometry relative="1" as="geometry">
                        <mxPoint x="199" y="351" as="targetPoint"/>
                        <Array as="points">
                            <mxPoint x="529" y="291"/>
                            <mxPoint x="259" y="291"/>
                            <mxPoint x="259" y="351"/>
                        </Array>
                    </mxGeometry>
                </mxCell>
                <mxCell id="n9nPnC-nrkT3UAbufBiy-5" value="isType" style="rounded=0;whiteSpace=wrap;html=1;fillColor=#ffff88;strokeColor=#36393d;" vertex="1" parent="1">
                    <mxGeometry x="489" y="321" width="80" height="20" as="geometry"/>
                </mxCell>
                <mxCell id="n9nPnC-nrkT3UAbufBiy-9" style="edgeStyle=orthogonalEdgeStyle;html=1;exitX=0.5;exitY=0;exitDx=0;exitDy=0;entryX=1;entryY=0.25;entryDx=0;entryDy=0;" edge="1" parent="1" source="n9nPnC-nrkT3UAbufBiy-6" target="ofREAWRliKzhn9Ep3vmD-1">
                    <mxGeometry relative="1" as="geometry">
                        <Array as="points">
                            <mxPoint x="689" y="291"/>
                            <mxPoint x="259" y="291"/>
                            <mxPoint x="259" y="351"/>
                        </Array>
                    </mxGeometry>
                </mxCell>
                <mxCell id="n9nPnC-nrkT3UAbufBiy-6" value="isType" style="rounded=0;whiteSpace=wrap;html=1;fillColor=#ffff88;strokeColor=#36393d;" vertex="1" parent="1">
                    <mxGeometry x="649" y="321" width="80" height="20" as="geometry"/>
                </mxCell>
                <mxCell id="n9nPnC-nrkT3UAbufBiy-12" value="_group_next" style="text;html=1;align=center;verticalAlign=middle;whiteSpace=wrap;rounded=0;" vertex="1" parent="1">
                    <mxGeometry x="229" y="361" width="70" height="30" as="geometry"/>
                </mxCell>
                <mxCell id="n9nPnC-nrkT3UAbufBiy-13" value="_group_next" style="text;html=1;align=center;verticalAlign=middle;whiteSpace=wrap;rounded=0;" vertex="1" parent="1">
                    <mxGeometry x="409" y="361" width="70" height="30" as="geometry"/>
                </mxCell>
                <mxCell id="n9nPnC-nrkT3UAbufBiy-14" value="_group_next" style="text;html=1;align=center;verticalAlign=middle;whiteSpace=wrap;rounded=0;" vertex="1" parent="1">
                    <mxGeometry x="573" y="361" width="70" height="30" as="geometry"/>
                </mxCell>
                <mxCell id="n9nPnC-nrkT3UAbufBiy-15" value="_group_head" style="text;html=1;align=center;verticalAlign=middle;whiteSpace=wrap;rounded=0;" vertex="1" parent="1">
                    <mxGeometry x="469" y="261" width="70" height="30" as="geometry"/>
                </mxCell>
                <mxCell id="n9nPnC-nrkT3UAbufBiy-21" style="edgeStyle=none;html=1;exitX=0.75;exitY=1;exitDx=0;exitDy=0;entryX=0.75;entryY=0;entryDx=0;entryDy=0;endArrow=block;endFill=1;" edge="1" parent="1" source="n9nPnC-nrkT3UAbufBiy-16" target="n9nPnC-nrkT3UAbufBiy-20">
                    <mxGeometry relative="1" as="geometry">
                        <mxPoint x="179" y="196" as="targetPoint"/>
                    </mxGeometry>
                </mxCell>
                <mxCell id="n9nPnC-nrkT3UAbufBiy-39" style="edgeStyle=none;html=1;exitX=1;exitY=0.5;exitDx=0;exitDy=0;entryX=0;entryY=0.5;entryDx=0;entryDy=0;" edge="1" parent="1" source="n9nPnC-nrkT3UAbufBiy-16" target="n9nPnC-nrkT3UAbufBiy-29">
                    <mxGeometry relative="1" as="geometry"/>
                </mxCell>
                <mxCell id="n9nPnC-nrkT3UAbufBiy-16" value="GROUP_T" style="rounded=0;whiteSpace=wrap;html=1;" vertex="1" parent="1">
                    <mxGeometry x="119" y="100" width="80" height="40" as="geometry"/>
                </mxCell>
                <mxCell id="n9nPnC-nrkT3UAbufBiy-17" value="isType" style="rounded=0;whiteSpace=wrap;html=1;fillColor=#ffff88;strokeColor=#36393d;" vertex="1" parent="1">
                    <mxGeometry x="119" y="80" width="80" height="20" as="geometry"/>
                </mxCell>
                <mxCell id="n9nPnC-nrkT3UAbufBiy-18" value="&lt;b&gt;&lt;font style=&quot;font-size: 18px;&quot;&gt;Point : ROOT&lt;/font&gt;&lt;/b&gt;" style="text;html=1;align=center;verticalAlign=middle;whiteSpace=wrap;rounded=0;" vertex="1" parent="1">
                    <mxGeometry x="93" y="47" width="130" height="30" as="geometry"/>
                </mxCell>
                <mxCell id="n9nPnC-nrkT3UAbufBiy-22" style="edgeStyle=none;html=1;exitX=0.75;exitY=1;exitDx=0;exitDy=0;entryX=0.75;entryY=0;entryDx=0;entryDy=0;endArrow=classic;endFill=1;" edge="1" parent="1" source="n9nPnC-nrkT3UAbufBiy-19" target="wk05YMfpP9dzShogbG-W-1">
                    <mxGeometry relative="1" as="geometry">
                        <mxPoint x="179" y="271" as="sourcePoint"/>
                    </mxGeometry>
                </mxCell>
                <mxCell id="YsFe-nArVIZYpezZopTt-14" style="edgeStyle=orthogonalEdgeStyle;html=1;exitX=0;exitY=0.5;exitDx=0;exitDy=0;entryX=0;entryY=0.5;entryDx=0;entryDy=0;" edge="1" parent="1" source="n9nPnC-nrkT3UAbufBiy-19" target="n9nPnC-nrkT3UAbufBiy-16">
                    <mxGeometry relative="1" as="geometry">
                        <Array as="points">
                            <mxPoint x="80" y="238"/>
                            <mxPoint x="80" y="120"/>
                        </Array>
                    </mxGeometry>
                </mxCell>
                <mxCell id="n9nPnC-nrkT3UAbufBiy-19" value="DOUBLE_T" style="rounded=0;whiteSpace=wrap;html=1;" vertex="1" parent="1">
                    <mxGeometry x="119" y="218" width="80" height="40" as="geometry"/>
                </mxCell>
                <mxCell id="n9nPnC-nrkT3UAbufBiy-20" value="isType" style="rounded=0;whiteSpace=wrap;html=1;fillColor=#ffff88;strokeColor=#36393d;" vertex="1" parent="1">
                    <mxGeometry x="119" y="198" width="80" height="20" as="geometry"/>
                </mxCell>
                <mxCell id="n9nPnC-nrkT3UAbufBiy-25" style="edgeStyle=none;html=1;exitX=1;exitY=0.5;exitDx=0;exitDy=0;entryX=0;entryY=0.5;entryDx=0;entryDy=0;" edge="1" parent="1" source="n9nPnC-nrkT3UAbufBiy-26" target="n9nPnC-nrkT3UAbufBiy-27">
                    <mxGeometry relative="1" as="geometry"/>
                </mxCell>
                <mxCell id="n9nPnC-nrkT3UAbufBiy-26" value="CHAR_T" style="rounded=0;whiteSpace=wrap;html=1;" vertex="1" parent="1">
                    <mxGeometry x="489" y="100" width="80" height="40" as="geometry"/>
                </mxCell>
                <mxCell id="yKMFhbzpg5A_5rozGzah-5" style="edgeStyle=none;html=1;exitX=1;exitY=0.5;exitDx=0;exitDy=0;dashed=1;" edge="1" parent="1" source="n9nPnC-nrkT3UAbufBiy-27">
                    <mxGeometry relative="1" as="geometry">
                        <mxPoint x="810" y="120.05882352941171" as="targetPoint"/>
                    </mxGeometry>
                </mxCell>
                <mxCell id="n9nPnC-nrkT3UAbufBiy-27" value="FLOAT_T" style="rounded=0;whiteSpace=wrap;html=1;" vertex="1" parent="1">
                    <mxGeometry x="649" y="100" width="80" height="40" as="geometry"/>
                </mxCell>
                <mxCell id="n9nPnC-nrkT3UAbufBiy-28" style="edgeStyle=none;html=1;exitX=1;exitY=0.5;exitDx=0;exitDy=0;entryX=0;entryY=0.5;entryDx=0;entryDy=0;" edge="1" parent="1" source="n9nPnC-nrkT3UAbufBiy-29" target="n9nPnC-nrkT3UAbufBiy-26">
                    <mxGeometry relative="1" as="geometry"/>
                </mxCell>
                <mxCell id="n9nPnC-nrkT3UAbufBiy-29" value="UINT8_T" style="rounded=0;whiteSpace=wrap;html=1;" vertex="1" parent="1">
                    <mxGeometry x="319" y="100" width="80" height="40" as="geometry"/>
                </mxCell>
                <mxCell id="YsFe-nArVIZYpezZopTt-3" style="edgeStyle=orthogonalEdgeStyle;html=1;exitX=0.5;exitY=0;exitDx=0;exitDy=0;entryX=1;entryY=0.25;entryDx=0;entryDy=0;" edge="1" parent="1" target="n9nPnC-nrkT3UAbufBiy-16">
                    <mxGeometry relative="1" as="geometry">
                        <mxPoint x="359" y="83" as="sourcePoint"/>
                        <mxPoint x="199" y="113" as="targetPoint"/>
                        <Array as="points">
                            <mxPoint x="359" y="49"/>
                            <mxPoint x="259" y="49"/>
                            <mxPoint x="259" y="110"/>
                        </Array>
                    </mxGeometry>
                </mxCell>
                <mxCell id="n9nPnC-nrkT3UAbufBiy-30" value="isType" style="rounded=0;whiteSpace=wrap;html=1;fillColor=#ffff88;strokeColor=#36393d;" vertex="1" parent="1">
                    <mxGeometry x="319" y="80" width="80" height="20" as="geometry"/>
                </mxCell>
                <mxCell id="YsFe-nArVIZYpezZopTt-4" style="edgeStyle=orthogonalEdgeStyle;html=1;exitX=0.5;exitY=0;exitDx=0;exitDy=0;entryX=1;entryY=0.25;entryDx=0;entryDy=0;" edge="1" parent="1" target="n9nPnC-nrkT3UAbufBiy-16">
                    <mxGeometry relative="1" as="geometry">
                        <mxPoint x="529" y="84" as="sourcePoint"/>
                        <mxPoint x="199.0000000000001" y="114" as="targetPoint"/>
                        <Array as="points">
                            <mxPoint x="529" y="50"/>
                            <mxPoint x="260" y="50"/>
                            <mxPoint x="260" y="110"/>
                        </Array>
                    </mxGeometry>
                </mxCell>
                <mxCell id="n9nPnC-nrkT3UAbufBiy-31" value="isType" style="rounded=0;whiteSpace=wrap;html=1;fillColor=#ffff88;strokeColor=#36393d;" vertex="1" parent="1">
                    <mxGeometry x="489" y="80" width="80" height="20" as="geometry"/>
                </mxCell>
                <mxCell id="n9nPnC-nrkT3UAbufBiy-32" style="edgeStyle=orthogonalEdgeStyle;html=1;exitX=0.5;exitY=0;exitDx=0;exitDy=0;entryX=1;entryY=0.25;entryDx=0;entryDy=0;" edge="1" parent="1" source="n9nPnC-nrkT3UAbufBiy-33">
                    <mxGeometry relative="1" as="geometry">
                        <mxPoint x="199" y="110" as="targetPoint"/>
                        <Array as="points">
                            <mxPoint x="689" y="50"/>
                            <mxPoint x="259" y="50"/>
                            <mxPoint x="259" y="110"/>
                        </Array>
                    </mxGeometry>
                </mxCell>
                <mxCell id="n9nPnC-nrkT3UAbufBiy-33" value="isType" style="rounded=0;whiteSpace=wrap;html=1;fillColor=#ffff88;strokeColor=#36393d;" vertex="1" parent="1">
                    <mxGeometry x="649" y="80" width="80" height="20" as="geometry"/>
                </mxCell>
                <mxCell id="n9nPnC-nrkT3UAbufBiy-34" value="_group_next" style="text;html=1;align=center;verticalAlign=middle;whiteSpace=wrap;rounded=0;" vertex="1" parent="1">
                    <mxGeometry x="229" y="120" width="70" height="30" as="geometry"/>
                </mxCell>
                <mxCell id="n9nPnC-nrkT3UAbufBiy-35" value="_group_next" style="text;html=1;align=center;verticalAlign=middle;whiteSpace=wrap;rounded=0;" vertex="1" parent="1">
                    <mxGeometry x="409" y="120" width="70" height="30" as="geometry"/>
                </mxCell>
                <mxCell id="n9nPnC-nrkT3UAbufBiy-36" value="_group_next" style="text;html=1;align=center;verticalAlign=middle;whiteSpace=wrap;rounded=0;" vertex="1" parent="1">
                    <mxGeometry x="573" y="120" width="70" height="30" as="geometry"/>
                </mxCell>
                <mxCell id="n9nPnC-nrkT3UAbufBiy-37" value="_group_head" style="text;html=1;align=center;verticalAlign=middle;whiteSpace=wrap;rounded=0;" vertex="1" parent="1">
                    <mxGeometry x="469" y="20" width="70" height="30" as="geometry"/>
                </mxCell>
                <mxCell id="n9nPnC-nrkT3UAbufBiy-46" style="edgeStyle=none;html=1;exitX=0.75;exitY=1;exitDx=0;exitDy=0;entryX=0.75;entryY=0;entryDx=0;entryDy=0;" edge="1" parent="1" source="n9nPnC-nrkT3UAbufBiy-40" target="n9nPnC-nrkT3UAbufBiy-45">
                    <mxGeometry relative="1" as="geometry"/>
                </mxCell>
                <mxCell id="YsFe-nArVIZYpezZopTt-16" style="edgeStyle=orthogonalEdgeStyle;html=1;exitX=0;exitY=0.5;exitDx=0;exitDy=0;entryX=0;entryY=0.5;entryDx=0;entryDy=0;" edge="1" parent="1" source="n9nPnC-nrkT3UAbufBiy-40" target="n9nPnC-nrkT3UAbufBiy-16">
                    <mxGeometry relative="1" as="geometry">
                        <Array as="points">
                            <mxPoint x="80" y="490"/>
                            <mxPoint x="80" y="120"/>
                        </Array>
                    </mxGeometry>
                </mxCell>
                <mxCell id="n9nPnC-nrkT3UAbufBiy-40" value="DOUBLE_T" style="rounded=0;whiteSpace=wrap;html=1;" vertex="1" parent="1">
                    <mxGeometry x="119" y="470" width="80" height="40" as="geometry"/>
                </mxCell>
                <mxCell id="n9nPnC-nrkT3UAbufBiy-41" value="isType" style="rounded=0;whiteSpace=wrap;html=1;fillColor=#ffff88;strokeColor=#36393d;" vertex="1" parent="1">
                    <mxGeometry x="119" y="450" width="80" height="20" as="geometry"/>
                </mxCell>
                <mxCell id="n9nPnC-nrkT3UAbufBiy-65" style="edgeStyle=none;html=1;exitX=0.75;exitY=1;exitDx=0;exitDy=0;entryX=0.75;entryY=0;entryDx=0;entryDy=0;" edge="1" parent="1" source="n9nPnC-nrkT3UAbufBiy-44" target="n9nPnC-nrkT3UAbufBiy-55">
                    <mxGeometry relative="1" as="geometry"/>
                </mxCell>
                <mxCell id="YsFe-nArVIZYpezZopTt-17" style="edgeStyle=orthogonalEdgeStyle;html=1;exitX=0;exitY=0.5;exitDx=0;exitDy=0;entryX=0;entryY=0.5;entryDx=0;entryDy=0;" edge="1" parent="1" source="n9nPnC-nrkT3UAbufBiy-44" target="n9nPnC-nrkT3UAbufBiy-16">
                    <mxGeometry relative="1" as="geometry">
                        <Array as="points">
                            <mxPoint x="80" y="618"/>
                            <mxPoint x="80" y="120"/>
                        </Array>
                    </mxGeometry>
                </mxCell>
                <mxCell id="n9nPnC-nrkT3UAbufBiy-44" value="DOUBLE_T" style="rounded=0;whiteSpace=wrap;html=1;" vertex="1" parent="1">
                    <mxGeometry x="119" y="598" width="80" height="40" as="geometry"/>
                </mxCell>
                <mxCell id="n9nPnC-nrkT3UAbufBiy-45" value="isType" style="rounded=0;whiteSpace=wrap;html=1;fillColor=#ffff88;strokeColor=#36393d;" vertex="1" parent="1">
                    <mxGeometry x="119" y="578" width="80" height="20" as="geometry"/>
                </mxCell>
                <mxCell id="n9nPnC-nrkT3UAbufBiy-48" style="edgeStyle=none;html=1;exitX=1;exitY=0.5;exitDx=0;exitDy=0;entryX=0;entryY=0.5;entryDx=0;entryDy=0;endArrow=block;endFill=1;" edge="1" parent="1" source="n9nPnC-nrkT3UAbufBiy-49" target="n9nPnC-nrkT3UAbufBiy-54">
                    <mxGeometry relative="1" as="geometry"/>
                </mxCell>
                <mxCell id="YsFe-nArVIZYpezZopTt-13" style="edgeStyle=orthogonalEdgeStyle;html=1;exitX=0;exitY=0.5;exitDx=0;exitDy=0;entryX=0;entryY=0.5;entryDx=0;entryDy=0;" edge="1" parent="1" source="n9nPnC-nrkT3UAbufBiy-49" target="n9nPnC-nrkT3UAbufBiy-16">
                    <mxGeometry relative="1" as="geometry">
                        <Array as="points">
                            <mxPoint x="80" y="740"/>
                            <mxPoint x="80" y="120"/>
                        </Array>
                    </mxGeometry>
                </mxCell>
                <mxCell id="yKMFhbzpg5A_5rozGzah-7" style="edgeStyle=none;html=1;exitX=0.75;exitY=1;exitDx=0;exitDy=0;dashed=1;" edge="1" parent="1" source="n9nPnC-nrkT3UAbufBiy-49">
                    <mxGeometry relative="1" as="geometry">
                        <mxPoint x="179" y="800" as="targetPoint"/>
                    </mxGeometry>
                </mxCell>
                <mxCell id="n9nPnC-nrkT3UAbufBiy-49" value="GROUP_T" style="rounded=0;whiteSpace=wrap;html=1;" vertex="1" parent="1">
                    <mxGeometry x="119" y="719.9300000000001" width="80" height="40" as="geometry"/>
                </mxCell>
                <mxCell id="n9nPnC-nrkT3UAbufBiy-50" style="edgeStyle=none;html=1;exitX=1;exitY=0.5;exitDx=0;exitDy=0;entryX=0;entryY=0.5;entryDx=0;entryDy=0;" edge="1" parent="1" source="n9nPnC-nrkT3UAbufBiy-51" target="n9nPnC-nrkT3UAbufBiy-52">
                    <mxGeometry relative="1" as="geometry"/>
                </mxCell>
                <mxCell id="n9nPnC-nrkT3UAbufBiy-51" value="CHAR_T" style="rounded=0;whiteSpace=wrap;html=1;" vertex="1" parent="1">
                    <mxGeometry x="489" y="719.9300000000001" width="80" height="40" as="geometry"/>
                </mxCell>
                <mxCell id="n9nPnC-nrkT3UAbufBiy-79" style="edgeStyle=none;html=1;exitX=1;exitY=0.5;exitDx=0;exitDy=0;entryX=0;entryY=0.5;entryDx=0;entryDy=0;" edge="1" parent="1" source="n9nPnC-nrkT3UAbufBiy-52" target="n9nPnC-nrkT3UAbufBiy-72">
                    <mxGeometry relative="1" as="geometry"/>
                </mxCell>
                <mxCell id="n9nPnC-nrkT3UAbufBiy-52" value="FLOAT_T" style="rounded=0;whiteSpace=wrap;html=1;" vertex="1" parent="1">
                    <mxGeometry x="649" y="719.9300000000001" width="80" height="40" as="geometry"/>
                </mxCell>
                <mxCell id="n9nPnC-nrkT3UAbufBiy-53" style="edgeStyle=none;html=1;exitX=1;exitY=0.5;exitDx=0;exitDy=0;entryX=0;entryY=0.5;entryDx=0;entryDy=0;" edge="1" parent="1" source="n9nPnC-nrkT3UAbufBiy-54" target="n9nPnC-nrkT3UAbufBiy-51">
                    <mxGeometry relative="1" as="geometry"/>
                </mxCell>
                <mxCell id="n9nPnC-nrkT3UAbufBiy-54" value="UINT8_T" style="rounded=0;whiteSpace=wrap;html=1;" vertex="1" parent="1">
                    <mxGeometry x="319" y="719.9300000000001" width="80" height="40" as="geometry"/>
                </mxCell>
                <mxCell id="n9nPnC-nrkT3UAbufBiy-55" value="isType" style="rounded=0;whiteSpace=wrap;html=1;fillColor=#ffff88;strokeColor=#36393d;" vertex="1" parent="1">
                    <mxGeometry x="119" y="699.9300000000001" width="80" height="20" as="geometry"/>
                </mxCell>
                <mxCell id="n9nPnC-nrkT3UAbufBiy-56" style="edgeStyle=orthogonalEdgeStyle;html=1;exitX=0.5;exitY=0;exitDx=0;exitDy=0;entryX=1;entryY=0.25;entryDx=0;entryDy=0;" edge="1" parent="1" source="n9nPnC-nrkT3UAbufBiy-57" target="n9nPnC-nrkT3UAbufBiy-49">
                    <mxGeometry relative="1" as="geometry">
                        <Array as="points">
                            <mxPoint x="359" y="669.9300000000001"/>
                            <mxPoint x="259" y="669.9300000000001"/>
                            <mxPoint x="259" y="729.9300000000001"/>
                        </Array>
                    </mxGeometry>
                </mxCell>
                <mxCell id="n9nPnC-nrkT3UAbufBiy-57" value="isType" style="rounded=0;whiteSpace=wrap;html=1;fillColor=#ffff88;strokeColor=#36393d;" vertex="1" parent="1">
                    <mxGeometry x="319" y="699.9300000000001" width="80" height="20" as="geometry"/>
                </mxCell>
                <mxCell id="n9nPnC-nrkT3UAbufBiy-58" style="edgeStyle=orthogonalEdgeStyle;html=1;exitX=0.5;exitY=0;exitDx=0;exitDy=0;" edge="1" parent="1" source="n9nPnC-nrkT3UAbufBiy-59">
                    <mxGeometry relative="1" as="geometry">
                        <mxPoint x="199" y="729.9300000000001" as="targetPoint"/>
                        <Array as="points">
                            <mxPoint x="529" y="669.9300000000001"/>
                            <mxPoint x="259" y="669.9300000000001"/>
                            <mxPoint x="259" y="729.9300000000001"/>
                        </Array>
                    </mxGeometry>
                </mxCell>
                <mxCell id="n9nPnC-nrkT3UAbufBiy-59" value="isType" style="rounded=0;whiteSpace=wrap;html=1;fillColor=#ffff88;strokeColor=#36393d;" vertex="1" parent="1">
                    <mxGeometry x="489" y="699.9300000000001" width="80" height="20" as="geometry"/>
                </mxCell>
                <mxCell id="n9nPnC-nrkT3UAbufBiy-60" style="edgeStyle=orthogonalEdgeStyle;html=1;exitX=0.5;exitY=0;exitDx=0;exitDy=0;entryX=1;entryY=0.25;entryDx=0;entryDy=0;" edge="1" parent="1" source="n9nPnC-nrkT3UAbufBiy-61" target="n9nPnC-nrkT3UAbufBiy-49">
                    <mxGeometry relative="1" as="geometry">
                        <Array as="points">
                            <mxPoint x="689" y="669.9300000000001"/>
                            <mxPoint x="259" y="669.9300000000001"/>
                            <mxPoint x="259" y="729.9300000000001"/>
                        </Array>
                    </mxGeometry>
                </mxCell>
                <mxCell id="n9nPnC-nrkT3UAbufBiy-61" value="isType" style="rounded=0;whiteSpace=wrap;html=1;fillColor=#ffff88;strokeColor=#36393d;" vertex="1" parent="1">
                    <mxGeometry x="649" y="699.9300000000001" width="80" height="20" as="geometry"/>
                </mxCell>
                <mxCell id="n9nPnC-nrkT3UAbufBiy-62" value="_group_next" style="text;html=1;align=center;verticalAlign=middle;whiteSpace=wrap;rounded=0;" vertex="1" parent="1">
                    <mxGeometry x="229" y="739.9300000000001" width="70" height="30" as="geometry"/>
                </mxCell>
                <mxCell id="n9nPnC-nrkT3UAbufBiy-63" value="_group_next" style="text;html=1;align=center;verticalAlign=middle;whiteSpace=wrap;rounded=0;" vertex="1" parent="1">
                    <mxGeometry x="409" y="739.9300000000001" width="70" height="30" as="geometry"/>
                </mxCell>
                <mxCell id="n9nPnC-nrkT3UAbufBiy-64" value="_group_next" style="text;html=1;align=center;verticalAlign=middle;whiteSpace=wrap;rounded=0;" vertex="1" parent="1">
                    <mxGeometry x="573" y="739.9300000000001" width="70" height="30" as="geometry"/>
                </mxCell>
                <mxCell id="n9nPnC-nrkT3UAbufBiy-67" value="_group_head" style="text;html=1;align=center;verticalAlign=middle;whiteSpace=wrap;rounded=0;" vertex="1" parent="1">
                    <mxGeometry x="450" y="636" width="70" height="30" as="geometry"/>
                </mxCell>
                <mxCell id="n9nPnC-nrkT3UAbufBiy-68" style="edgeStyle=none;html=1;exitX=1;exitY=0.5;exitDx=0;exitDy=0;entryX=0;entryY=0.5;entryDx=0;entryDy=0;dashed=1;" edge="1" parent="1" source="n9nPnC-nrkT3UAbufBiy-69">
                    <mxGeometry relative="1" as="geometry">
                        <mxPoint x="1140" y="739.9299999999998" as="targetPoint"/>
                    </mxGeometry>
                </mxCell>
                <mxCell id="n9nPnC-nrkT3UAbufBiy-69" value="CHAR_T" style="rounded=0;whiteSpace=wrap;html=1;" vertex="1" parent="1">
                    <mxGeometry x="980" y="719.9300000000001" width="80" height="40" as="geometry"/>
                </mxCell>
                <mxCell id="n9nPnC-nrkT3UAbufBiy-71" style="edgeStyle=none;html=1;exitX=1;exitY=0.5;exitDx=0;exitDy=0;entryX=0;entryY=0.5;entryDx=0;entryDy=0;" edge="1" parent="1" source="n9nPnC-nrkT3UAbufBiy-72" target="n9nPnC-nrkT3UAbufBiy-69">
                    <mxGeometry relative="1" as="geometry"/>
                </mxCell>
                <mxCell id="n9nPnC-nrkT3UAbufBiy-72" value="UINT8_T" style="rounded=0;whiteSpace=wrap;html=1;" vertex="1" parent="1">
                    <mxGeometry x="810" y="719.9300000000001" width="80" height="40" as="geometry"/>
                </mxCell>
                <mxCell id="n9nPnC-nrkT3UAbufBiy-80" style="edgeStyle=orthogonalEdgeStyle;html=1;exitX=0.5;exitY=0;exitDx=0;exitDy=0;entryX=1;entryY=0.25;entryDx=0;entryDy=0;" edge="1" parent="1" target="n9nPnC-nrkT3UAbufBiy-49">
                    <mxGeometry relative="1" as="geometry">
                        <mxPoint x="850" y="703.9300000000001" as="sourcePoint"/>
                        <mxPoint x="199" y="733.9300000000001" as="targetPoint"/>
                        <Array as="points">
                            <mxPoint x="850" y="670"/>
                            <mxPoint x="260" y="670"/>
                            <mxPoint x="260" y="730"/>
                            <mxPoint x="199" y="730"/>
                        </Array>
                    </mxGeometry>
                </mxCell>
                <mxCell id="n9nPnC-nrkT3UAbufBiy-73" value="isType" style="rounded=0;whiteSpace=wrap;html=1;fillColor=#ffff88;strokeColor=#36393d;" vertex="1" parent="1">
                    <mxGeometry x="810" y="699.9300000000001" width="80" height="20" as="geometry"/>
                </mxCell>
                <mxCell id="n9nPnC-nrkT3UAbufBiy-81" style="edgeStyle=orthogonalEdgeStyle;html=1;exitX=0.5;exitY=0;exitDx=0;exitDy=0;entryX=1;entryY=0.25;entryDx=0;entryDy=0;" edge="1" parent="1" target="n9nPnC-nrkT3UAbufBiy-49">
                    <mxGeometry relative="1" as="geometry">
                        <mxPoint x="1020.0000000000002" y="703.9300000000001" as="sourcePoint"/>
                        <mxPoint x="199" y="733.9300000000001" as="targetPoint"/>
                        <Array as="points">
                            <mxPoint x="1020" y="670"/>
                            <mxPoint x="260" y="670"/>
                            <mxPoint x="260" y="730"/>
                            <mxPoint x="199" y="730"/>
                        </Array>
                    </mxGeometry>
                </mxCell>
                <mxCell id="n9nPnC-nrkT3UAbufBiy-74" value="isType" style="rounded=0;whiteSpace=wrap;html=1;fillColor=#ffff88;strokeColor=#36393d;" vertex="1" parent="1">
                    <mxGeometry x="980" y="699.9300000000001" width="80" height="20" as="geometry"/>
                </mxCell>
                <mxCell id="n9nPnC-nrkT3UAbufBiy-76" value="_group_next" style="text;html=1;align=center;verticalAlign=middle;whiteSpace=wrap;rounded=0;" vertex="1" parent="1">
                    <mxGeometry x="900" y="739.9300000000001" width="70" height="30" as="geometry"/>
                </mxCell>
                <mxCell id="n9nPnC-nrkT3UAbufBiy-78" value="_group_head" style="text;html=1;align=center;verticalAlign=middle;whiteSpace=wrap;rounded=0;" vertex="1" parent="1">
                    <mxGeometry x="941" y="636" width="70" height="30" as="geometry"/>
                </mxCell>
                <mxCell id="YsFe-nArVIZYpezZopTt-1" value="_next" style="text;html=1;align=center;verticalAlign=middle;whiteSpace=wrap;rounded=0;" vertex="1" parent="1">
                    <mxGeometry x="179" y="156" width="50" height="30" as="geometry"/>
                </mxCell>
                <mxCell id="YsFe-nArVIZYpezZopTt-2" value="_next" style="text;html=1;align=center;verticalAlign=middle;whiteSpace=wrap;rounded=0;" vertex="1" parent="1">
                    <mxGeometry x="179" y="276" width="50" height="30" as="geometry"/>
                </mxCell>
                <mxCell id="YsFe-nArVIZYpezZopTt-5" value="_next" style="text;html=1;align=center;verticalAlign=middle;whiteSpace=wrap;rounded=0;" vertex="1" parent="1">
                    <mxGeometry x="179" y="398.5" width="50" height="30" as="geometry"/>
                </mxCell>
                <mxCell id="YsFe-nArVIZYpezZopTt-6" value="_next" style="text;html=1;align=center;verticalAlign=middle;whiteSpace=wrap;rounded=0;" vertex="1" parent="1">
                    <mxGeometry x="179" y="526" width="50" height="30" as="geometry"/>
                </mxCell>
                <mxCell id="YsFe-nArVIZYpezZopTt-7" value="_next" style="text;html=1;align=center;verticalAlign=middle;whiteSpace=wrap;rounded=0;" vertex="1" parent="1">
                    <mxGeometry x="179" y="656" width="50" height="30" as="geometry"/>
                </mxCell>
                <mxCell id="YsFe-nArVIZYpezZopTt-18" value="_head" style="text;html=1;align=center;verticalAlign=middle;whiteSpace=wrap;rounded=0;" vertex="1" parent="1">
                    <mxGeometry x="20" y="345" width="50" height="30" as="geometry"/>
                </mxCell>
                <mxCell id="yKMFhbzpg5A_5rozGzah-6" style="edgeStyle=none;html=1;exitX=1;exitY=0.5;exitDx=0;exitDy=0;dashed=1;" edge="1" parent="1" source="yKMFhbzpg5A_5rozGzah-1">
                    <mxGeometry relative="1" as="geometry">
                        <mxPoint x="970" y="361.2352941176471" as="targetPoint"/>
                    </mxGeometry>
                </mxCell>
                <mxCell id="yKMFhbzpg5A_5rozGzah-1" value="GROUP_T" style="rounded=0;whiteSpace=wrap;html=1;" vertex="1" parent="1">
                    <mxGeometry x="830" y="341" width="80" height="40" as="geometry"/>
                </mxCell>
                <mxCell id="yKMFhbzpg5A_5rozGzah-2" value="isType" style="rounded=0;whiteSpace=wrap;html=1;fillColor=#ffff88;strokeColor=#36393d;" vertex="1" parent="1">
                    <mxGeometry x="830" y="321" width="80" height="20" as="geometry"/>
                </mxCell>
                <mxCell id="yKMFhbzpg5A_5rozGzah-4" value="_group_next" style="text;html=1;align=center;verticalAlign=middle;whiteSpace=wrap;rounded=0;" vertex="1" parent="1">
                    <mxGeometry x="740" y="361" width="70" height="30" as="geometry"/>
                </mxCell>
                <mxCell id="yKMFhbzpg5A_5rozGzah-9" value="" style="rounded=0;whiteSpace=wrap;html=1;dashed=1;" vertex="1" parent="1">
                    <mxGeometry x="810" y="100" width="80" height="40" as="geometry"/>
                </mxCell>
                <mxCell id="yKMFhbzpg5A_5rozGzah-10" value="" style="rounded=0;whiteSpace=wrap;html=1;fillColor=#ffff88;strokeColor=#36393d;dashed=1;" vertex="1" parent="1">
                    <mxGeometry x="810" y="80" width="80" height="20" as="geometry"/>
                </mxCell>
                <mxCell id="yKMFhbzpg5A_5rozGzah-12" value="" style="rounded=0;whiteSpace=wrap;html=1;dashed=1;" vertex="1" parent="1">
                    <mxGeometry x="970" y="341" width="80" height="40" as="geometry"/>
                </mxCell>
                <mxCell id="yKMFhbzpg5A_5rozGzah-13" value="" style="rounded=0;whiteSpace=wrap;html=1;fillColor=#ffff88;strokeColor=#36393d;dashed=1;" vertex="1" parent="1">
                    <mxGeometry x="970" y="321" width="80" height="20" as="geometry"/>
                </mxCell>
            </root>
        </mxGraphModel>
    </diagram>
    <diagram id="e6WlL495jt_Xe354YPOg" name="Point Stucture">
        <mxGraphModel dx="1348" dy="1096" grid="1" gridSize="10" guides="1" tooltips="1" connect="1" arrows="1" fold="1" page="1" pageScale="1" pageWidth="1169" pageHeight="827" math="0" shadow="0">
            <root>
                <mxCell id="0"/>
                <mxCell id="1" parent="0"/>
                <mxCell id="CVOQ1TxzFJHfKccozfDj-20" style="edgeStyle=orthogonalEdgeStyle;html=1;exitX=0.5;exitY=1;exitDx=0;exitDy=0;entryX=0;entryY=0.5;entryDx=0;entryDy=0;endArrow=none;endFill=0;" edge="1" parent="1" source="2" target="CVOQ1TxzFJHfKccozfDj-19">
                    <mxGeometry relative="1" as="geometry"/>
                </mxCell>
                <mxCell id="2" value="&lt;b&gt;Point&lt;/b&gt;" style="rounded=1;whiteSpace=wrap;html=1;fillColor=#ffff88;strokeColor=#36393d;" vertex="1" parent="1">
                    <mxGeometry x="350" y="40" width="60" height="30" as="geometry"/>
                </mxCell>
                <mxCell id="7" style="edgeStyle=none;html=1;exitX=1;exitY=0.5;exitDx=0;exitDy=0;endArrow=none;endFill=0;" edge="1" parent="1" source="9" target="4">
                    <mxGeometry relative="1" as="geometry">
                        <mxPoint x="200" y="145" as="sourcePoint"/>
                    </mxGeometry>
                </mxCell>
                <mxCell id="6" style="edgeStyle=orthogonalEdgeStyle;html=1;exitX=1;exitY=0.5;exitDx=0;exitDy=0;entryX=0.5;entryY=1;entryDx=0;entryDy=0;endArrow=none;endFill=0;" edge="1" parent="1" source="4" target="2">
                    <mxGeometry relative="1" as="geometry"/>
                </mxCell>
                <mxCell id="17" style="edgeStyle=orthogonalEdgeStyle;html=1;exitX=0;exitY=0.5;exitDx=0;exitDy=0;entryX=1;entryY=0.5;entryDx=0;entryDy=0;endArrow=none;endFill=0;" edge="1" parent="1" source="4" target="16">
                    <mxGeometry relative="1" as="geometry"/>
                </mxCell>
                <mxCell id="4" value="&lt;b&gt;Private&lt;/b&gt;" style="rounded=0;whiteSpace=wrap;html=1;" vertex="1" parent="1">
                    <mxGeometry x="260" y="130" width="70" height="30" as="geometry"/>
                </mxCell>
                <mxCell id="9" value="&lt;b&gt;Variable Group&lt;/b&gt;" style="rounded=0;whiteSpace=wrap;html=1;fillColor=#cce5ff;strokeColor=#36393d;" vertex="1" parent="1">
                    <mxGeometry x="80" y="130" width="120" height="30" as="geometry"/>
                </mxCell>
                <mxCell id="10" value="_name" style="rounded=0;whiteSpace=wrap;html=1;fillColor=#CCFF99;" vertex="1" parent="1">
                    <mxGeometry x="80" y="160" width="120" height="20" as="geometry"/>
                </mxCell>
                <mxCell id="11" value="_data" style="rounded=0;whiteSpace=wrap;html=1;fillColor=#CCFF99;" vertex="1" parent="1">
                    <mxGeometry x="80" y="180" width="120" height="20" as="geometry"/>
                </mxCell>
                <mxCell id="12" value="_elements_size" style="rounded=0;whiteSpace=wrap;html=1;fillColor=#CCFF99;" vertex="1" parent="1">
                    <mxGeometry x="80" y="200" width="120" height="20" as="geometry"/>
                </mxCell>
                <mxCell id="13" value="_total_byte_size" style="rounded=0;whiteSpace=wrap;html=1;fillColor=#CCFF99;" vertex="1" parent="1">
                    <mxGeometry x="80" y="220" width="120" height="20" as="geometry"/>
                </mxCell>
                <mxCell id="14" value="_type" style="rounded=0;whiteSpace=wrap;html=1;fillColor=#CCFF99;" vertex="1" parent="1">
                    <mxGeometry x="80" y="240" width="120" height="20" as="geometry"/>
                </mxCell>
                <mxCell id="15" value="_mark" style="rounded=0;whiteSpace=wrap;html=1;fillColor=#CCFF99;" vertex="1" parent="1">
                    <mxGeometry x="80" y="260" width="120" height="20" as="geometry"/>
                </mxCell>
                <mxCell id="16" value="&lt;b&gt;Branch Group&lt;/b&gt;" style="rounded=0;whiteSpace=wrap;html=1;fillColor=#cce5ff;strokeColor=#36393d;" vertex="1" parent="1">
                    <mxGeometry x="80" y="300" width="120" height="30" as="geometry"/>
                </mxCell>
                <mxCell id="18" value="_next" style="rounded=0;whiteSpace=wrap;html=1;fillColor=#CCFF99;" vertex="1" parent="1">
                    <mxGeometry x="80" y="330" width="120" height="20" as="geometry"/>
                </mxCell>
                <mxCell id="19" value="_prev" style="rounded=0;whiteSpace=wrap;html=1;fillColor=#CCFF99;" vertex="1" parent="1">
                    <mxGeometry x="80" y="350" width="120" height="20" as="geometry"/>
                </mxCell>
                <mxCell id="CVOQ1TxzFJHfKccozfDj-24" style="edgeStyle=none;html=1;exitX=1;exitY=0.5;exitDx=0;exitDy=0;entryX=0;entryY=0.5;entryDx=0;entryDy=0;endArrow=none;endFill=0;" edge="1" parent="1" source="CVOQ1TxzFJHfKccozfDj-19" target="CVOQ1TxzFJHfKccozfDj-23">
                    <mxGeometry relative="1" as="geometry"/>
                </mxCell>
                <mxCell id="CVOQ1TxzFJHfKccozfDj-55" style="edgeStyle=orthogonalEdgeStyle;html=1;exitX=1;exitY=0.5;exitDx=0;exitDy=0;endArrow=none;endFill=0;" edge="1" parent="1" source="CVOQ1TxzFJHfKccozfDj-19" target="CVOQ1TxzFJHfKccozfDj-21">
                    <mxGeometry relative="1" as="geometry"/>
                </mxCell>
                <mxCell id="CVOQ1TxzFJHfKccozfDj-19" value="&lt;b&gt;Public&lt;/b&gt;" style="rounded=0;whiteSpace=wrap;html=1;" vertex="1" parent="1">
                    <mxGeometry x="420" y="130" width="70" height="30" as="geometry"/>
                </mxCell>
                <mxCell id="CVOQ1TxzFJHfKccozfDj-56" style="edgeStyle=orthogonalEdgeStyle;html=1;exitX=0.5;exitY=1;exitDx=0;exitDy=0;entryX=0.5;entryY=0;entryDx=0;entryDy=0;endArrow=none;endFill=0;" edge="1" parent="1" source="CVOQ1TxzFJHfKccozfDj-21" target="CVOQ1TxzFJHfKccozfDj-46">
                    <mxGeometry relative="1" as="geometry"/>
                </mxCell>
                <mxCell id="CVOQ1TxzFJHfKccozfDj-57" style="edgeStyle=orthogonalEdgeStyle;html=1;exitX=0.5;exitY=1;exitDx=0;exitDy=0;entryX=0.5;entryY=0;entryDx=0;entryDy=0;endArrow=none;endFill=0;" edge="1" parent="1" source="CVOQ1TxzFJHfKccozfDj-21" target="CVOQ1TxzFJHfKccozfDj-47">
                    <mxGeometry relative="1" as="geometry"/>
                </mxCell>
                <mxCell id="CVOQ1TxzFJHfKccozfDj-58" style="edgeStyle=orthogonalEdgeStyle;html=1;exitX=0.5;exitY=1;exitDx=0;exitDy=0;entryX=0.5;entryY=0;entryDx=0;entryDy=0;endArrow=none;endFill=0;" edge="1" parent="1" source="CVOQ1TxzFJHfKccozfDj-21" target="CVOQ1TxzFJHfKccozfDj-51">
                    <mxGeometry relative="1" as="geometry"/>
                </mxCell>
                <mxCell id="CVOQ1TxzFJHfKccozfDj-67" style="edgeStyle=orthogonalEdgeStyle;html=1;exitX=0.5;exitY=1;exitDx=0;exitDy=0;entryX=0.5;entryY=0;entryDx=0;entryDy=0;endArrow=none;endFill=0;" edge="1" parent="1" source="CVOQ1TxzFJHfKccozfDj-21" target="CVOQ1TxzFJHfKccozfDj-61">
                    <mxGeometry relative="1" as="geometry"/>
                </mxCell>
                <mxCell id="CVOQ1TxzFJHfKccozfDj-69" style="edgeStyle=orthogonalEdgeStyle;html=1;exitX=0.5;exitY=1;exitDx=0;exitDy=0;entryX=0.5;entryY=0;entryDx=0;entryDy=0;endArrow=none;endFill=0;" edge="1" parent="1" source="CVOQ1TxzFJHfKccozfDj-21" target="CVOQ1TxzFJHfKccozfDj-68">
                    <mxGeometry relative="1" as="geometry"/>
                </mxCell>
                <mxCell id="CVOQ1TxzFJHfKccozfDj-21" value="&lt;b&gt;Method Group For Point&lt;/b&gt;" style="rounded=0;whiteSpace=wrap;html=1;fillColor=#CCE5FF;" vertex="1" parent="1">
                    <mxGeometry x="430" y="363" width="180" height="30" as="geometry"/>
                </mxCell>
                <mxCell id="CVOQ1TxzFJHfKccozfDj-23" value="&lt;b&gt;Constructure&lt;/b&gt;" style="rounded=0;whiteSpace=wrap;html=1;fillColor=#CCE5FF;" vertex="1" parent="1">
                    <mxGeometry x="560" y="130" width="160" height="30" as="geometry"/>
                </mxCell>
                <mxCell id="CVOQ1TxzFJHfKccozfDj-25" value="&amp;nbsp;Point( const char * name )" style="rounded=0;whiteSpace=wrap;html=1;align=left;" vertex="1" parent="1">
                    <mxGeometry x="560" y="160" width="160" height="20" as="geometry"/>
                </mxCell>
                <mxCell id="CVOQ1TxzFJHfKccozfDj-26" value="&lt;div&gt;&amp;nbsp;template &amp;lt;typename T&amp;gt;&lt;/div&gt;&amp;nbsp;Point( isType type , const char * name , T data&amp;nbsp; )" style="rounded=0;whiteSpace=wrap;html=1;align=left;fillColor=#ffcc99;strokeColor=#36393d;" vertex="1" parent="1">
                    <mxGeometry x="560" y="180" width="270" height="40" as="geometry"/>
                </mxCell>
                <mxCell id="CVOQ1TxzFJHfKccozfDj-28" value="&amp;nbsp;Point( isType type , const char * name , size_t numberElements )" style="rounded=0;whiteSpace=wrap;html=1;align=left;fillColor=#ffcc99;strokeColor=#36393d;" vertex="1" parent="1">
                    <mxGeometry x="560" y="220" width="360" height="20" as="geometry"/>
                </mxCell>
                <mxCell id="CVOQ1TxzFJHfKccozfDj-30" value="&lt;div&gt;&amp;nbsp;template &amp;lt;typename T&amp;gt;&lt;/div&gt;&amp;nbsp;Point( isType type , const char * name , T *data , size_t numberElements&amp;nbsp; &amp;nbsp;)" style="rounded=0;whiteSpace=wrap;html=1;align=left;" vertex="1" parent="1">
                    <mxGeometry x="560" y="240" width="420" height="40" as="geometry"/>
                </mxCell>
                <mxCell id="CVOQ1TxzFJHfKccozfDj-32" style="edgeStyle=orthogonalEdgeStyle;html=1;exitX=0.25;exitY=1;exitDx=0;exitDy=0;entryX=1;entryY=0.5;entryDx=0;entryDy=0;" edge="1" parent="1" source="CVOQ1TxzFJHfKccozfDj-31" target="CVOQ1TxzFJHfKccozfDj-26">
                    <mxGeometry relative="1" as="geometry"/>
                </mxCell>
                <mxCell id="CVOQ1TxzFJHfKccozfDj-33" style="edgeStyle=orthogonalEdgeStyle;html=1;exitX=0.75;exitY=1;exitDx=0;exitDy=0;entryX=1;entryY=0.5;entryDx=0;entryDy=0;" edge="1" parent="1" source="CVOQ1TxzFJHfKccozfDj-31" target="CVOQ1TxzFJHfKccozfDj-28">
                    <mxGeometry relative="1" as="geometry"/>
                </mxCell>
                <mxCell id="CVOQ1TxzFJHfKccozfDj-31" value="must Improve !!!!" style="rounded=0;whiteSpace=wrap;html=1;fillColor=#e51400;fontColor=#ffffff;strokeColor=#B20000;" vertex="1" parent="1">
                    <mxGeometry x="880" y="60" width="120" height="40" as="geometry"/>
                </mxCell>
                <mxCell id="CVOQ1TxzFJHfKccozfDj-36" value="&lt;div&gt;&amp;nbsp;template &amp;lt;typename T&amp;gt;&lt;/div&gt;&amp;nbsp;bool SetValue( T data)" style="rounded=0;whiteSpace=wrap;html=1;align=left;" vertex="1" parent="1">
                    <mxGeometry x="321" y="523" width="180" height="40" as="geometry"/>
                </mxCell>
                <mxCell id="CVOQ1TxzFJHfKccozfDj-37" value="&lt;div&gt;&amp;nbsp;template &amp;lt;typename T&amp;gt;&lt;/div&gt;&amp;nbsp;bool SetValue( T *data , size_t size)" style="rounded=0;whiteSpace=wrap;html=1;align=left;" vertex="1" parent="1">
                    <mxGeometry x="321" y="563" width="210" height="40" as="geometry"/>
                </mxCell>
                <mxCell id="CVOQ1TxzFJHfKccozfDj-38" value="&lt;div&gt;&amp;nbsp;template &amp;lt;typename T&amp;gt;&lt;/div&gt;&amp;nbsp;T GetValue()" style="rounded=0;whiteSpace=wrap;html=1;align=left;" vertex="1" parent="1">
                    <mxGeometry x="321" y="603" width="210" height="40" as="geometry"/>
                </mxCell>
                <mxCell id="CVOQ1TxzFJHfKccozfDj-39" value="&lt;div&gt;&amp;nbsp;template &amp;lt;typename T&amp;gt;&lt;/div&gt;&amp;nbsp;T GetValue( size_t index )" style="rounded=0;whiteSpace=wrap;html=1;align=left;" vertex="1" parent="1">
                    <mxGeometry x="321" y="643" width="210" height="40" as="geometry"/>
                </mxCell>
                <mxCell id="CVOQ1TxzFJHfKccozfDj-40" value="&lt;div&gt;&lt;span style=&quot;background-color: transparent;&quot;&gt;&lt;font style=&quot;color: rgb(0, 0, 0);&quot;&gt;&amp;nbsp;T GetRawBuffer()&lt;/font&gt;&lt;/span&gt;&lt;/div&gt;" style="rounded=0;whiteSpace=wrap;html=1;align=left;" vertex="1" parent="1">
                    <mxGeometry x="321" y="683" width="210" height="20" as="geometry"/>
                </mxCell>
                <mxCell id="CVOQ1TxzFJHfKccozfDj-41" value="&lt;div&gt;&lt;span style=&quot;background-color: transparent;&quot;&gt;&lt;font style=&quot;color: rgb(0, 0, 0);&quot;&gt;&amp;nbsp;void ClearValue()&lt;/font&gt;&lt;/span&gt;&lt;/div&gt;" style="rounded=0;whiteSpace=wrap;html=1;align=left;" vertex="1" parent="1">
                    <mxGeometry x="321" y="703" width="210" height="20" as="geometry"/>
                </mxCell>
                <mxCell id="CVOQ1TxzFJHfKccozfDj-42" value="&lt;div&gt;&lt;font color=&quot;#000000&quot;&gt;&amp;nbsp;bool SetName( const char name[] )&lt;/font&gt;&lt;/div&gt;" style="rounded=0;whiteSpace=wrap;html=1;align=left;" vertex="1" parent="1">
                    <mxGeometry x="80" y="523" width="210" height="20" as="geometry"/>
                </mxCell>
                <mxCell id="CVOQ1TxzFJHfKccozfDj-44" value="&lt;div&gt;&lt;font color=&quot;#000000&quot;&gt;&amp;nbsp;const char *&amp;nbsp; GetName()&lt;/font&gt;&lt;/div&gt;" style="rounded=0;whiteSpace=wrap;html=1;align=left;" vertex="1" parent="1">
                    <mxGeometry x="80" y="543" width="210" height="20" as="geometry"/>
                </mxCell>
                <mxCell id="CVOQ1TxzFJHfKccozfDj-45" value="_group" style="rounded=0;whiteSpace=wrap;html=1;fillColor=#CCFF99;" vertex="1" parent="1">
                    <mxGeometry x="80" y="370" width="120" height="20" as="geometry"/>
                </mxCell>
                <mxCell id="CVOQ1TxzFJHfKccozfDj-46" value="&lt;b&gt;Manage Name&lt;/b&gt;" style="rounded=0;whiteSpace=wrap;html=1;fillColor=#CCE5FF;" vertex="1" parent="1">
                    <mxGeometry x="80" y="493" width="180" height="30" as="geometry"/>
                </mxCell>
                <mxCell id="CVOQ1TxzFJHfKccozfDj-47" value="&lt;b&gt;Manage Get/Set Value&lt;/b&gt;" style="rounded=0;whiteSpace=wrap;html=1;fillColor=#CCE5FF;" vertex="1" parent="1">
                    <mxGeometry x="321" y="493" width="180" height="30" as="geometry"/>
                </mxCell>
                <mxCell id="CVOQ1TxzFJHfKccozfDj-51" value="&lt;b&gt;Manage Type/Byte/Size&lt;/b&gt;" style="rounded=0;whiteSpace=wrap;html=1;fillColor=#CCE5FF;" vertex="1" parent="1">
                    <mxGeometry x="561" y="493" width="180" height="30" as="geometry"/>
                </mxCell>
                <mxCell id="CVOQ1TxzFJHfKccozfDj-52" value="&lt;div&gt;&lt;span style=&quot;background-color: transparent;&quot;&gt;&lt;font style=&quot;color: rgb(0, 0, 0);&quot;&gt;&amp;nbsp;bool Copy( Point *src )&lt;/font&gt;&lt;/span&gt;&lt;/div&gt;" style="rounded=0;whiteSpace=wrap;html=1;align=left;" vertex="1" parent="1">
                    <mxGeometry x="321" y="723" width="210" height="20" as="geometry"/>
                </mxCell>
                <mxCell id="CVOQ1TxzFJHfKccozfDj-53" value="&lt;div&gt;&lt;span style=&quot;background-color: transparent;&quot;&gt;&amp;nbsp;const size_t Count()&lt;/span&gt;&lt;/div&gt;" style="rounded=0;whiteSpace=wrap;html=1;align=left;" vertex="1" parent="1">
                    <mxGeometry x="561" y="523" width="180" height="20" as="geometry"/>
                </mxCell>
                <mxCell id="CVOQ1TxzFJHfKccozfDj-54" value="&lt;div&gt;&lt;span style=&quot;background-color: transparent;&quot;&gt;&amp;nbsp;const size_t GetByteSize()&lt;/span&gt;&lt;/div&gt;" style="rounded=0;whiteSpace=wrap;html=1;align=left;" vertex="1" parent="1">
                    <mxGeometry x="561" y="543" width="180" height="20" as="geometry"/>
                </mxCell>
                <mxCell id="CVOQ1TxzFJHfKccozfDj-59" value="&lt;div&gt;&lt;span style=&quot;background-color: transparent;&quot;&gt;&amp;nbsp;const TypeInfo GetTypeInfo()&lt;/span&gt;&lt;/div&gt;" style="rounded=0;whiteSpace=wrap;html=1;align=left;" vertex="1" parent="1">
                    <mxGeometry x="561" y="563" width="180" height="20" as="geometry"/>
                </mxCell>
                <mxCell id="CVOQ1TxzFJHfKccozfDj-60" value="&lt;div&gt;&lt;span style=&quot;background-color: transparent;&quot;&gt;&amp;nbsp;const isType GetType()&lt;/span&gt;&lt;/div&gt;" style="rounded=0;whiteSpace=wrap;html=1;align=left;" vertex="1" parent="1">
                    <mxGeometry x="561" y="583" width="180" height="20" as="geometry"/>
                </mxCell>
                <mxCell id="CVOQ1TxzFJHfKccozfDj-61" value="&lt;b&gt;Manage Slot In Point&lt;/b&gt;" style="rounded=0;whiteSpace=wrap;html=1;fillColor=#CCE5FF;" vertex="1" parent="1">
                    <mxGeometry x="761" y="493" width="180" height="30" as="geometry"/>
                </mxCell>
                <mxCell id="CVOQ1TxzFJHfKccozfDj-62" value="&lt;div&gt;&lt;span style=&quot;background-color: transparent;&quot;&gt;&amp;nbsp;bool AddSlot ( Point point )&lt;/span&gt;&lt;/div&gt;" style="rounded=0;whiteSpace=wrap;html=1;align=left;" vertex="1" parent="1">
                    <mxGeometry x="761" y="523" width="180" height="20" as="geometry"/>
                </mxCell>
                <mxCell id="CVOQ1TxzFJHfKccozfDj-64" value="&lt;div&gt;&lt;span style=&quot;background-color: transparent;&quot;&gt;&amp;nbsp;Point* FindSlot ( Point point )&lt;/span&gt;&lt;/div&gt;" style="rounded=0;whiteSpace=wrap;html=1;align=left;" vertex="1" parent="1">
                    <mxGeometry x="761" y="543" width="180" height="20" as="geometry"/>
                </mxCell>
                <mxCell id="CVOQ1TxzFJHfKccozfDj-65" value="&lt;div&gt;&lt;span style=&quot;background-color: transparent;&quot;&gt;&amp;nbsp;bool DeleteSlot ( Point *Point )&lt;/span&gt;&lt;/div&gt;" style="rounded=0;whiteSpace=wrap;html=1;align=left;" vertex="1" parent="1">
                    <mxGeometry x="761" y="563" width="180" height="20" as="geometry"/>
                </mxCell>
                <mxCell id="CVOQ1TxzFJHfKccozfDj-68" value="&lt;b&gt;Buffer Print&lt;/b&gt;" style="rounded=0;whiteSpace=wrap;html=1;fillColor=#CCE5FF;" vertex="1" parent="1">
                    <mxGeometry x="960" y="493" width="180" height="30" as="geometry"/>
                </mxCell>
                <mxCell id="CVOQ1TxzFJHfKccozfDj-70" value="&lt;div&gt;&lt;span style=&quot;background-color: transparent;&quot;&gt;&amp;nbsp;const char * DisplayContext()&lt;/span&gt;&lt;/div&gt;" style="rounded=0;whiteSpace=wrap;html=1;align=left;" vertex="1" parent="1">
                    <mxGeometry x="960" y="523" width="180" height="20" as="geometry"/>
                </mxCell>
                <mxCell id="CVOQ1TxzFJHfKccozfDj-71" value="&lt;div&gt;&lt;span style=&quot;background-color: transparent;&quot;&gt;&amp;nbsp;const char * DisplayValue()&lt;/span&gt;&lt;/div&gt;" style="rounded=0;whiteSpace=wrap;html=1;align=left;" vertex="1" parent="1">
                    <mxGeometry x="960" y="543" width="180" height="20" as="geometry"/>
                </mxCell>
            </root>
        </mxGraphModel>
    </diagram>
</mxfile>